PathFileType	4	(X/Y/Z)	/Users/itak/Documents/Research/Walk-IL/dataset/trc/00266_00009.trc
DataRate	CameraRate	NumFrames	NumMarkers	Units	OrigDataRate	OrigDataStartFrame	OrigNumFrames
100.000000	100.000000	4	54	mm	100.000000	0	421
Frame#	Time	RPSI			LPSI			L3			STRN			T10			C7			CLAV			RBAK			LBAK			LSHO			LUPA			LAEL			LAOL			LWTS			LWPS			LFRA			LIFD			LHPS			LHTS			RSHO			RUPA			RAEL			RAOL			RWPS			RFRA			RIFD			RHTS			RHPS			RBHD			LFHD			RFHD			LBHD			LHIP			RHIP			RASI			LASI			LKNE			LTHI			LANK			LTIP			LTOE			LMT1			LMT5			LHEE			RKNE			RTHI			RANK			RTIP			RTOE			RMT1			RMT5			RWTS			RHEE			*53			
		X1	Y1	Z1	X2	Y2	Z2	X3	Y3	Z3	X4	Y4	Z4	X5	Y5	Z5	X6	Y6	Z6	X7	Y7	Z7	X8	Y8	Z8	X9	Y9	Z9	X10	Y10	Z10	X11	Y11	Z11	X12	Y12	Z12	X13	Y13	Z13	X14	Y14	Z14	X15	Y15	Z15	X16	Y16	Z16	X17	Y17	Z17	X18	Y18	Z18	X19	Y19	Z19	X20	Y20	Z20	X21	Y21	Z21	X22	Y22	Z22	X23	Y23	Z23	X24	Y24	Z24	X25	Y25	Z25	X26	Y26	Z26	X27	Y27	Z27	X28	Y28	Z28	X29	Y29	Z29	X30	Y30	Z30	X31	Y31	Z31	X32	Y32	Z32	X33	Y33	Z33	X34	Y34	Z34	X35	Y35	Z35	X36	Y36	Z36	X37	Y37	Z37	X38	Y38	Z38	X39	Y39	Z39	X40	Y40	Z40	X41	Y41	Z41	X42	Y42	Z42	X43	Y43	Z43	X44	Y44	Z44	X45	Y45	Z45	X46	Y46	Z46	X47	Y47	Z47	X48	Y48	Z48	X49	Y49	Z49	X50	Y50	Z50	X51	Y51	Z51	X52	Y52	Z52	X53	Y53	Z53	X54	Y54	Z54	

1	0	-1475.792358398438	1057.553588867188	740.447265625	-1473.0634765625	1059.029541015625	619.316162109375	-1479.145385742188	1135.241455078125	662.5872192382812	-1231.066650390625	1314.366333007812	654.21630859375	-1483.5830078125	1261.30859375	668.2388305664062	-1414.925415039062	1521.6796875	662.9048461914062	-1250.308349609375	1434.026123046875	656.7638549804688	-1489.940551757812	1384.728393554688	740.2991943359375	-1440.264526367188	1485.1826171875	552.4945678710938	-1352.936279296875	1483.480102539062	493.3037109375	-1386.623413085938	1365.330078125	414.8738403320312	-1376.64599609375	1152.7021484375	390.224365234375	-1442.16943359375	1136.525634765625	446.1348266601562	-1272.70068359375	922.2091064453125	439.26953125	-1307.640258789062	903.2359619140625	364.2847290039062	-1354.823974609375	1045.803466796875	375.7669677734375	-1252.164428710938	726.9547729492188	429.5706787109375	-1287.650512695312	816.065673828125	367.541748046875	-1236.159912109375	823.4519653320312	415.8810119628906	-1349.468139648438	1480.35498046875	828.9873657226562	-1365.83935546875	1417.271118164062	897.069580078125	-1395.733642578125	1139.389038085938	949.1953735351562	-1433.905639648438	1131.215209960938	862.2318115234375	-1318.165771484375	907.9393310546875	973.1139526367188	-1371.968627929688	1070.574096679688	963.02197265625	-1259.749389648438	725.5281372070312	899.8292236328125	-1231.541381835938	797.8298950195312	917.2533569335938	-1279.303466796875	799.1574096679688	972.3441772460938	-1344.6484375	1676.255859375	731.6015625	-1182.028686523438	1707.547241210938	575.1566772460938	-1149.94775390625	1704.85107421875	669.7787475585938	-1344.810424804688	1683.103881835938	590.8925170898438	-1374.343383789062	988.7638549804688	478.8605651855469	-1378.287963867188	1017.797973632812	847.7073974609375	-1280.133422851562	1054.076904296875	809.3776245117188	-1272.8388671875	1027.663208007812	526.4466552734375	-1363.63134765625	503.5639343261719	540.3825073242188	-1359.751953125	646.1591796875	503.3845825195312	-1460.365844726562	37.33114242553711	572.6527099609375	-1418.663208007812	281.5205993652344	546.116455078125	-1246.031982421875	47.90517425537109	628.7476806640625	-1315.078002929688	39.55599975585938	671.262451171875	-1331.130981445312	41.60043716430664	554.4697875976562	-1523.62548828125	43.91836547851562	622.3604736328125	-1356.381958007812	524.467529296875	838.8211669921875	-1327.7919921875	795.17529296875	865.1275634765625	-1461.39990234375	42.43564224243164	841.3413696289062	-1359.72900390625	406.1665954589844	829.7421264648438	-1250.4580078125	48.53443908691406	812.0069580078125	-1302.39013671875	39.80121612548828	765.4215087890625	-1353.448120117188	44.01924514770508	874.2617797851562	-1270.921752929688	918.479736328125	904.1036376953125	-1522.54931640625	36.4935188293457	780.1468505859375	nan	nan	nan	
2	0.01	-1475.54833984375	1057.571166992188	739.572509765625	-1472.710693359375	1058.942993164062	618.512939453125	-1478.728637695312	1135.310913085938	661.7352294921875	-1230.597290039062	1314.319702148438	653.4296875	-1483.122924804688	1261.323974609375	667.4048461914062	-1414.345581054688	1521.6875	662.1394653320312	-1249.778076171875	1433.970825195312	655.9691162109375	-1489.462646484375	1384.8251953125	739.5031127929688	-1439.6552734375	1485.209838867188	551.6802978515625	-1352.326171875	1483.492309570312	492.5516662597656	-1386.056762695312	1365.385864257812	414.0490417480469	-1376.04833984375	1152.75146484375	389.2814636230469	-1441.603393554688	1136.6123046875	445.0851135253906	-1271.9765625	922.2857055664062	438.3935852050781	-1306.709838867188	903.3607177734375	363.43310546875	-1354.08740234375	1045.8466796875	374.8816833496094	-1251.550659179688	726.8006591796875	428.4198608398438	-1286.51171875	816.2211303710938	366.7537841796875	-1235.262817382812	823.69970703125	415.0469665527344	-1348.814331054688	1480.3056640625	828.201416015625	-1365.3017578125	1417.247924804688	896.2456665039062	-1395.421630859375	1139.498168945312	948.48876953125	-1433.446044921875	1131.185180664062	861.4489135742188	-1317.644897460938	907.9765625	972.5210571289062	-1371.542236328125	1070.601440429688	962.287353515625	-1258.6396484375	725.86328125	899.4201049804688	-1230.85205078125	798.169189453125	916.7373657226562	-1278.458374023438	799.3496704101562	971.8876342773438	-1343.814208984375	1676.402587890625	730.6644897460938	-1181.006469726562	1707.178466796875	574.354736328125	-1148.916870117188	1704.421142578125	668.9573974609375	-1343.84130859375	1683.165893554688	589.9127197265625	-1373.864868164062	988.56298828125	478.2159729003906	-1377.962158203125	1017.957092285156	846.9053344726562	-1279.980712890625	1054.169921875	808.6102294921875	-1272.372436523438	1027.5419921875	525.7723999023438	-1363.202026367188	503.4299926757812	540.0255737304688	-1359.306762695312	646.0541381835938	502.9935302734375	-1460.355224609375	37.26642608642578	572.6298828125	-1418.434692382812	281.3512878417969	545.93017578125	-1246.048706054688	47.90408325195312	628.77001953125	-1315.094848632812	39.55558776855469	671.258544921875	-1331.132446289062	41.59981155395508	554.4608764648438	-1523.62109375	43.89175415039062	622.2861328125	-1354.814697265625	524.580078125	838.5525512695312	-1327.125122070312	795.363037109375	864.580322265625	-1461.306274414062	42.72249603271484	841.2601928710938	-1358.254150390625	406.0768432617188	829.5755004882812	-1250.448120117188	48.53699493408203	811.9976806640625	-1302.376098632812	39.80806732177734	765.4312744140625	-1353.4296875	44.07666778564453	874.2464599609375	-1270.316528320312	918.63671875	903.5497436523438	-1522.537353515625	36.97464752197266	780.0458984375	nan	nan	nan	
3	0.02	-1475.244995117188	1057.592041015625	738.4885864257812	-1472.254516601562	1058.827392578125	617.50048828125	-1478.21240234375	1135.392944335938	660.6534423828125	-1229.994995117188	1314.258178710938	652.4584350585938	-1482.547607421875	1261.350341796875	666.3497314453125	-1413.606201171875	1521.7001953125	661.1743774414062	-1249.09423828125	1433.907348632812	654.98583984375	-1488.854370117188	1384.94091796875	738.4923706054688	-1438.88720703125	1485.244995117188	550.6572875976562	-1351.544677734375	1483.50244140625	491.6058654785156	-1385.312255859375	1365.443725585938	413.025146484375	-1375.29248046875	1152.828857421875	388.0999145507812	-1440.882568359375	1136.702514648438	443.7838439941406	-1271.058227539062	922.3801879882812	437.2912902832031	-1305.558227539062	903.517333984375	362.3480224609375	-1353.1552734375	1045.911987304688	373.7560424804688	-1250.765625	726.6558227539062	427.00537109375	-1285.004638671875	816.387451171875	365.7675170898438	-1234.136962890625	823.988525390625	413.9903259277344	-1348.01708984375	1480.252319335938	827.2208862304688	-1364.639038085938	1417.2236328125	895.2193603515625	-1394.99560546875	1139.610717773438	947.5921630859375	-1432.869018554688	1131.158569335938	860.4739379882812	-1317.002563476562	908.028564453125	971.778076171875	-1371.016479492188	1070.645385742188	961.376220703125	-1257.13623046875	726.3121948242188	898.8914184570312	-1229.849243164062	798.6746826171875	916.13427734375	-1277.326049804688	799.58740234375	971.3009033203125	-1342.771240234375	1676.585083007812	729.4856567382812	-1179.717407226562	1706.712646484375	573.3494262695312	-1147.632446289062	1703.895263671875	667.9443969726562	-1342.612060546875	1683.223388671875	588.6930541992188	-1373.25439453125	988.3099365234375	477.3844604492188	-1377.64599609375	1018.158508300781	845.9137573242188	-1279.760009765625	1054.28466796875	807.6787719726562	-1271.752685546875	1027.391845703125	524.9458618164062	-1362.641235351562	503.254638671875	539.5946655273438	-1358.71240234375	645.9083862304688	502.5047607421875	-1460.342895507812	37.19700622558594	572.5848388671875	-1418.122924804688	281.1672058105469	545.6837768554688	-1246.073486328125	47.901611328125	628.80419921875	-1315.111450195312	39.5489616394043	671.2611694335938	-1331.132568359375	41.59666442871094	554.4547119140625	-1523.623657226562	43.87013626098633	622.1828002929688	-1352.697387695312	524.7404174804688	838.2339477539062	-1326.307739257812	795.6131591796875	863.9067993164062	-1461.180053710938	43.11373901367188	841.1421508789062	-1356.273803710938	405.9798278808594	829.3778076171875	-1250.42578125	48.54164123535156	811.9871826171875	-1302.35107421875	39.81851959228516	765.4414672851562	-1353.402709960938	44.14850997924805	874.215576171875	-1269.57177734375	918.8382568359375	902.8539428710938	-1522.518798828125	37.61263275146484	779.92138671875	nan	nan	nan	
4	0.03	-1474.895874023438	1057.619384765625	737.2435302734375	-1471.707153320312	1058.687133789062	616.3175048828125	-1477.618408203125	1135.48046875	659.3861694335938	-1229.279418945312	1314.182739257812	651.3510131835938	-1481.87939453125	1261.38916015625	665.1155395507812	-1412.732055664062	1521.718139648438	660.0480346679688	-1248.277221679688	1433.84033203125	653.8619995117188	-1488.13720703125	1385.068237304688	737.3043823242188	-1437.987915039062	1485.286865234375	549.467529296875	-1350.615966796875	1483.5087890625	490.5044860839844	-1384.406127929688	1365.495727539062	411.8483276367188	-1374.401977539062	1152.934448242188	386.7309265136719	-1440.029052734375	1136.784545898438	442.2903747558594	-1269.98193359375	922.4904174804688	436.0062866210938	-1304.23974609375	903.6980590820312	361.0679626464844	-1352.062866210938	1046.00048828125	372.4305419921875	-1249.77978515625	726.573974609375	425.4312133789062	-1283.19091796875	816.5531616210938	364.6133422851562	-1232.828857421875	824.2969970703125	412.75146484375	-1347.119750976562	1480.201293945312	826.089111328125	-1363.884033203125	1417.201171875	894.0371704101562	-1394.462890625	1139.71533203125	946.5416870117188	-1432.196166992188	1131.139404296875	859.3515014648438	-1316.268310546875	908.0932006835938	970.91455078125	-1370.414306640625	1070.70654296875	960.3309326171875	-1255.23876953125	726.8726196289062	898.2706298828125	-1228.504638671875	799.3607788085938	915.4927368164062	-1275.923706054688	799.8740844726562	970.6102905273438	-1341.562744140625	1676.793823242188	728.1143188476562	-1178.210205078125	1706.1689453125	572.1854858398438	-1146.151977539062	1703.300903320312	666.7904052734375	-1341.167846679688	1683.266357421875	587.2898559570312	-1372.535522460938	988.0147705078125	476.3964538574219	-1377.386962890625	1018.38623046875	844.7777099609375	-1279.473266601562	1054.4150390625	806.6343994140625	-1270.999633789062	1027.217895507812	524.0117797851562	-1361.96630859375	503.0408325195312	539.1160888671875	-1357.976928710938	645.71875	501.9389038085938	-1460.330078125	37.12833404541016	572.5169067382812	-1417.731201171875	280.9818115234375	545.3926391601562	-1246.10546875	47.89674377441406	628.8515014648438	-1315.12451171875	39.53292083740234	671.2736206054688	-1331.13037109375	41.59108352661133	554.4540405273438	-1523.63427734375	43.85689926147461	622.0526123046875	-1350.040893554688	524.947265625	837.8846435546875	-1325.373901367188	795.9210815429688	863.1410522460938	-1461.022705078125	43.60799026489258	840.98876953125	-1353.8046875	405.8872985839844	829.1632690429688	-1250.386596679688	48.54891967773438	811.9757690429688	-1302.310668945312	39.83434295654297	765.45068359375	-1353.363403320312	44.23507690429688	874.1646118164062	-1268.723510742188	919.0792236328125	902.0445556640625	-1522.4833984375	38.40024566650391	779.7844848632812	nan	nan	nan	
